<svg width="136" height="20" viewBox="0 0 136 20" fill="none" xmlns="http://www.w3.org/2000/svg">
<path fill-rule="evenodd" clip-rule="evenodd" d="M135.993 3.55791V0H132.227V3.55791H135.993ZM3.77999 12.1605V19.5999H0V0.343221H3.77999L3.77998 6.76543L3.7964 6.74951C4.16898 6.39408 4.5938 6.08764 5.07086 5.8302C5.96138 5.34964 6.93941 5.10936 8.00496 5.10936C9.04975 5.10936 9.95658 5.35039 10.7255 5.83245C11.4944 6.31451 12.0883 6.99842 12.5072 7.88418C12.9262 8.76994 13.1357 9.80846 13.1357 10.9998V19.5999H9.35571V11.6407C9.35571 10.5718 9.15803 9.77597 8.76266 9.25336C8.36729 8.73075 7.75213 8.46945 6.91716 8.46945C6.28501 8.46945 5.73511 8.61676 5.26747 8.91137C4.79982 9.20599 4.435 9.63208 4.17299 10.1896C3.91099 10.7472 3.77999 11.4041 3.77999 12.1605ZM25.7154 19.0195C24.6476 19.6732 23.4586 20 22.1484 20C20.7708 20 19.5226 19.6732 18.4038 19.0195C17.285 18.3658 16.4071 17.4683 15.7701 16.3268C15.1331 15.1853 14.8146 13.9102 14.8146 12.5012C14.8146 11.1033 15.1331 9.83352 15.7701 8.69206C16.4071 7.55059 17.285 6.6574 18.4038 6.01246C19.5226 5.36753 20.7708 5.04506 22.1484 5.04506C23.4586 5.04506 24.6476 5.36753 25.7154 6.01246L25.8119 6.07178C26.1312 6.27177 26.4294 6.49456 26.7065 6.74015L26.7423 6.7726L27.1452 5.42391H29.9673V19.5786H27.0041L26.6782 18.3095L26.6227 18.3583C26.3414 18.601 26.039 18.8214 25.7154 19.0195ZM22.4566 16.3802C21.7333 16.3802 21.0838 16.2119 20.508 15.8752C19.9322 15.5386 19.478 15.0743 19.1453 14.4825C18.8127 13.8907 18.6463 13.2303 18.6463 12.5012C18.6463 11.7719 18.8127 11.1114 19.1453 10.5197C19.478 9.92805 19.9322 9.46381 20.508 9.12701C21.0838 8.79021 21.7333 8.62181 22.4566 8.62181C23.18 8.62181 23.8288 8.79021 24.4031 9.12701C24.9774 9.46381 25.4309 9.9273 25.7635 10.5175C26.0962 11.1077 26.2625 11.7689 26.2625 12.5012C26.2625 13.2335 26.0962 13.8948 25.7635 14.485C25.4309 15.0752 24.9774 15.5386 24.4031 15.8752C23.8288 16.2119 23.18 16.3802 22.4566 16.3802ZM45.8222 5.44521L40.2675 19.5999H36.7792L31.0906 5.44521H35.1226L38.5441 14.9287L41.9055 5.44521H45.8222ZM52.8626 20C54.1728 20 55.3618 19.6732 56.4296 19.0195C56.7532 18.8214 57.0556 18.601 57.3369 18.3583L57.3924 18.3095L57.7183 19.5786H60.6815V5.42391H57.8594L57.4565 6.7726L57.4207 6.74015C57.1436 6.49456 56.8454 6.27177 56.526 6.07178L56.4296 6.01246C55.3618 5.36753 54.1728 5.04506 52.8626 5.04506C51.485 5.04506 50.2368 5.36753 49.118 6.01246C47.9992 6.6574 47.1213 7.55059 46.4843 8.69206C45.8473 9.83352 45.5288 11.1033 45.5288 12.5012C45.5288 13.9102 45.8473 15.1853 46.4843 16.3268C47.1213 17.4683 47.9992 18.3658 49.118 19.0195C50.2368 19.6732 51.485 20 52.8626 20ZM51.2222 15.8752C51.798 16.2119 52.4475 16.3802 53.1708 16.3802C53.8942 16.3802 54.543 16.2119 55.1173 15.8752C55.6916 15.5386 56.1451 15.0752 56.4777 14.485C56.8104 13.8948 56.9767 13.2335 56.9767 12.5012C56.9767 11.7689 56.8104 11.1077 56.4777 10.5175C56.1451 9.9273 55.6916 9.46381 55.1173 9.12701C54.543 8.79021 53.8942 8.62181 53.1708 8.62181C52.4475 8.62181 51.798 8.79021 51.2222 9.12701C50.6464 9.46381 50.1922 9.92805 49.8595 10.5197C49.5268 11.1114 49.3605 11.7719 49.3605 12.5012C49.3605 13.2303 49.5268 13.8907 49.8595 14.4825C50.1922 15.0743 50.6464 15.5386 51.2222 15.8752ZM72.5524 19.5999V12.1605C72.5524 11.4041 72.6834 10.7472 72.9454 10.1896C73.2074 9.63208 73.5722 9.20599 74.0398 8.91137C74.5075 8.61676 75.0574 8.46945 75.6895 8.46945C76.5245 8.46945 77.1397 8.73075 77.535 9.25336C77.9304 9.77597 78.1281 10.5718 78.1281 11.6407V19.5999H81.9081V10.9998C81.9081 9.80846 81.6986 8.76994 81.2796 7.88418C80.8607 6.99842 80.2667 6.31451 79.4978 5.83245C78.729 5.35039 77.8221 5.10936 76.7773 5.10936C75.7118 5.10936 74.7338 5.34964 73.8432 5.8302C73.3662 6.08764 72.9414 6.39408 72.5688 6.74951L72.5523 6.76543L72.5524 0.343221H68.7724V19.5999H72.5524ZM94.4878 19.0195C93.4199 19.6732 92.2309 20 90.9208 20C89.5432 20 88.295 19.6732 87.1762 19.0195C86.0574 18.3658 85.1795 17.4683 84.5425 16.3268C83.9055 15.1853 83.587 13.9102 83.587 12.5012C83.587 11.1033 83.9055 9.83352 84.5425 8.69206C85.1795 7.55059 86.0574 6.6574 87.1762 6.01246C88.295 5.36753 89.5432 5.04506 90.9208 5.04506C92.2309 5.04506 93.4199 5.36753 94.4878 6.01246L94.5842 6.07178C94.9036 6.27177 95.2018 6.49456 95.4789 6.74015L95.5147 6.77278L95.9176 5.42391H98.7397V19.5786H95.7764L95.4507 18.3095L95.3951 18.3583C95.1138 18.601 94.8114 18.8214 94.4878 19.0195ZM91.229 16.3802C90.5057 16.3802 89.8562 16.2119 89.2804 15.8752C88.7046 15.5386 88.2504 15.0743 87.9177 14.4825C87.585 13.8907 87.4187 13.2303 87.4187 12.5012C87.4187 11.7719 87.585 11.1114 87.9177 10.5197C88.2504 9.92805 88.7046 9.46381 89.2804 9.12701C89.8562 8.79021 90.5057 8.62181 91.229 8.62181C91.9523 8.62181 92.6012 8.79021 93.1755 9.12701C93.7498 9.46381 94.2032 9.9273 94.5359 10.5175C94.8686 11.1077 95.0349 11.7689 95.0349 12.5012C95.0349 13.2335 94.8686 13.8948 94.5359 14.485C94.2032 15.0752 93.7498 15.5386 93.1755 15.8752C92.6012 16.2119 91.9523 16.3802 91.229 16.3802ZM114.595 5.44521L109.04 19.5999H105.552L99.863 5.44521H103.895L107.317 14.9287L110.678 5.44521H114.595ZM121.635 20C122.945 20 124.134 19.6732 125.202 19.0195C125.526 18.8214 125.828 18.601 126.109 18.3583L126.165 18.3095L126.491 19.5786H129.454V5.42391H126.632L126.229 6.7726L126.193 6.74015C125.916 6.49456 125.618 6.27177 125.298 6.07178L125.202 6.01246C124.134 5.36753 122.945 5.04506 121.635 5.04506C120.257 5.04506 119.009 5.36753 117.89 6.01246C116.772 6.6574 115.894 7.55059 115.257 8.69206C114.62 9.83352 114.301 11.1033 114.301 12.5012C114.301 13.9102 114.62 15.1853 115.257 16.3268C115.894 17.4683 116.772 18.3658 117.89 19.0195C119.009 19.6732 120.257 20 121.635 20ZM119.995 15.8752C120.57 16.2119 121.22 16.3802 121.943 16.3802C122.667 16.3802 123.315 16.2119 123.89 15.8752C124.464 15.5386 124.917 15.0752 125.25 14.485C125.583 13.8948 125.749 13.2335 125.749 12.5012C125.749 11.7689 125.583 11.1077 125.25 10.5175C124.917 9.9273 124.464 9.46381 123.89 9.12701C123.315 8.79021 122.667 8.62181 121.943 8.62181C121.22 8.62181 120.57 8.79021 119.995 9.12701C119.419 9.46381 118.965 9.92805 118.632 10.5197C118.299 11.1114 118.133 11.7719 118.133 12.5012C118.133 13.2303 118.299 13.8907 118.632 14.4825C118.965 15.0743 119.419 15.5386 119.995 15.8752ZM136 5.44521V19.5999H132.22V5.44521H136Z" fill="black"/>
</svg>
